<svg id="Компонент_1_1" data-name="Компонент 1 – 1" xmlns="http://www.w3.org/2000/svg" width="541.002" height="364.873" viewBox="0 0 541.002 364.873">
  <g id="Сгруппировать_33" data-name="Сгруппировать 33">
    <rect id="Прямоугольник_128" data-name="Прямоугольник 128" width="541" height="364" rx="30" transform="translate(0.002)" fill="#1c5e3c"/>
    <path id="Пересечение_2" data-name="Пересечение 2" d="M30,357.1a30,30,0,0,1-30-30V22.23A29.941,29.941,0,0,1,11.019-1C54.869,18.124,95.786,66.36,116.472,130.023c11.554,35.56,15.173,70.936,11.893,102.428,57.573,1.05,111.114,39,130.27,97.954a144.612,144.612,0,0,1,5.967,26.7Z" transform="translate(0 7.77)" fill="#56a07a"/>
  </g>
  <path id="ticket-perforated-fill" d="M0,28.725A25.725,25.725,0,0,1,25.725,3h222.95A25.725,25.725,0,0,1,274.4,28.725V54.45a8.575,8.575,0,0,1-8.575,8.575,25.725,25.725,0,0,0,0,51.45,8.575,8.575,0,0,1,8.575,8.575v25.725A25.725,25.725,0,0,1,248.675,174.5H25.725A25.725,25.725,0,0,1,0,148.775V123.05a8.575,8.575,0,0,1,8.575-8.575,25.725,25.725,0,1,0,0-51.45A8.575,8.575,0,0,1,0,54.45Zm68.6-17.15v17.15H85.75V11.575Zm17.15,51.45V45.875H68.6v17.15Zm120.05,0V45.875H188.65v17.15Zm-17.15-34.3H205.8V11.575H188.65ZM85.75,80.175H68.6v17.15H85.75ZM205.8,97.325V80.175H188.65v17.15ZM85.75,114.475H68.6v17.15H85.75Zm120.05,17.15v-17.15H188.65v17.15ZM68.6,148.775v17.15H85.75v-17.15Zm120.05,17.15H205.8v-17.15H188.65Z" transform="translate(132.945 94.209)" fill="#ebebeb"/>
</svg>
