<svg id="Компонент_2_1" data-name="Компонент 2 – 1" xmlns="http://www.w3.org/2000/svg" width="541.002" height="364.873" viewBox="0 0 541.002 364.873">
  <g id="Сгруппировать_34" data-name="Сгруппировать 34">
    <rect id="Прямоугольник_128" data-name="Прямоугольник 128" width="541" height="364" rx="30" fill="#1c5e3c"/>
    <path id="Пересечение_2" data-name="Пересечение 2" d="M0,334.873V30A30,30,0,0,1,30,0H264.6a144.612,144.612,0,0,1-5.967,26.7c-19.156,58.957-72.7,96.9-130.27,97.954,3.281,31.492-.338,66.868-11.893,102.428C95.788,290.738,54.864,338.975,11.018,358.105A29.938,29.938,0,0,1,0,334.873Z" transform="translate(541.002 364.873) rotate(180)" fill="#56a07a"/>
  </g>
  <path id="geo-alt-fill" d="M72.655,188.412s70.655-66.957,70.655-117.758A70.655,70.655,0,1,0,2,70.655C2,121.455,72.655,188.412,72.655,188.412Zm0-82.43a35.327,35.327,0,1,1,35.327-35.327A35.327,35.327,0,0,1,72.655,105.982Z" transform="translate(198.002 88.588)" fill="#ebebeb"/>
</svg>
